<svg xmlns="http://www.w3.org/2000/svg" width="1200" height="630" viewBox="0 0 1200 630">
	<defs>
		<radialGradient id="b" cx="50%" cy="50%" r="50%" gradientUnits="objectBoundingBox">
			<stop offset="0%" stop-color="#8b4513" stop-opacity=".2"/>
			<stop offset="100%" stop-color="#8b4513" stop-opacity="0"/>
		</radialGradient>
		<radialGradient id="c" cx="50%" cy="50%" r="50%" gradientUnits="objectBoundingBox">
			<stop offset="0%" stop-color="#b22222" stop-opacity=".14"/>
			<stop offset="100%" stop-color="#b22222" stop-opacity="0"/>
		</radialGradient>
		<filter id="d" width="160%" height="160%" x="-30%" y="-30%">
			<feGaussianBlur in="SourceGraphic" result="blur" stdDeviation="14"/>
			<feMerge>
				<feMergeNode in="blur"/>
				<feMergeNode in="blur"/>
				<feMergeNode in="SourceGraphic"/>
			</feMerge>
		</filter>
		<filter id="e" width="110%" height="120%" x="-5%" y="-5%">
			<feDropShadow dx="0" dy="2" flood-color="#000" flood-opacity=".5" stdDeviation="4"/>
		</filter>
		<linearGradient id="a" x1="0" x2="1" y1="0" y2="1" gradientUnits="objectBoundingBox">
			<stop offset="0%" stop-color="#0a0a0a"/>
			<stop offset="50%" stop-color="#150808"/>
			<stop offset="100%" stop-color="#08080f"/>
		</linearGradient>
	</defs>
	<path fill="url(#a)" d="M0 0h1200v630H0z"/>
	<ellipse cx="220" cy="340" fill="url(#b)" rx="500" ry="380"/>
	<ellipse cx="1020" cy="180" fill="url(#c)" rx="440" ry="340"/>
	<path stroke="#c9a54e" stroke-width=".8" d="M56 36h1088M56 594h1088M56 36v26m1088-26v26M56 594v-26m1088 26v-26" opacity=".25"/>
	<text x="600" y="256" fill="#c9a54e" filter="url(#d)" font-family="Noto Serif CJK SC" font-size="192" font-weight="700" text-anchor="middle">舌診</text>
	<text x="600" y="330" fill="#b8a080" filter="url(#e)" font-family="Liberation Sans" font-size="34" font-weight="700" letter-spacing="16" text-anchor="middle">TONGDIAGNOSE</text>
	<text x="600" y="376" fill="#6a5a45" font-family="Liberation Sans" font-size="19" font-style="italic" text-anchor="middle">Traditionele Chinese Geneeskunde · AI-analyse</text>
	<path stroke="#c9a54e" stroke-width=".6" d="M480 402h240" opacity=".18"/>
	<rect width="96" height="34" x="332" y="424" fill="#22783200" stroke="#22783266" rx="17"/>
	<rect width="96" height="34" x="332" y="424" fill="#227832" fill-opacity=".18" rx="17"/>
	<text x="380" y="446" fill="#60b070" font-family="Liberation Sans" font-size="13" font-weight="700" text-anchor="middle">Hout 木</text>
	<rect width="96" height="34" x="442" y="424" fill="#b2222200" stroke="#b2222266" rx="17"/>
	<rect width="96" height="34" x="442" y="424" fill="#b22222" fill-opacity=".18" rx="17"/>
	<text x="490" y="446" fill="#e07070" font-family="Liberation Sans" font-size="13" font-weight="700" text-anchor="middle">Vuur 火</text>
	<rect width="96" height="34" x="552" y="424" fill="#a0823200" stroke="#a0823266" rx="17"/>
	<rect width="96" height="34" x="552" y="424" fill="#a08232" fill-opacity=".18" rx="17"/>
	<text x="600" y="446" fill="#c0a850" font-family="Liberation Sans" font-size="13" font-weight="700" text-anchor="middle">Aarde 土</text>
	<rect width="96" height="34" x="662" y="424" fill="#a0a0aa00" stroke="#a0a0aa66" rx="17"/>
	<rect width="96" height="34" x="662" y="424" fill="#a0a0aa" fill-opacity=".18" rx="17"/>
	<text x="710" y="446" fill="#b0b0c0" font-family="Liberation Sans" font-size="13" font-weight="700" text-anchor="middle">Metaal 金</text>
	<rect width="96" height="34" x="772" y="424" fill="#1e3c7800" stroke="#1e3c7866" rx="17"/>
	<rect width="96" height="34" x="772" y="424" fill="#1e3c78" fill-opacity=".18" rx="17"/>
	<text x="820" y="446" fill="#7090d0" font-family="Liberation Sans" font-size="13" font-weight="700" text-anchor="middle">Water 水</text>
	<text x="600" y="564" fill="#4a3a28" font-family="Liberation Sans" font-size="15" letter-spacing="1" text-anchor="middle">tong.kajkowalski.nl</text>
</svg>
